<svg width="497" height="361" viewBox="0 0 497 361" fill="none" xmlns="http://www.w3.org/2000/svg">
<path d="M478.013 354.099H50.7159C48.3575 354.099 46.4253 352.166 46.4253 349.743V349.628C46.4253 347.234 48.3291 345.272 50.7159 345.272H477.984C480.343 345.272 482.275 347.205 482.275 349.628V349.743C482.275 352.137 480.371 354.099 478.013 354.099Z" fill="#E7E7E7"/>
<path d="M388.496 288.525H83.3658C78.0793 288.525 73.8026 284.519 73.8026 279.594L68.0112 70.9149C68.0112 65.9894 72.2879 61.9838 77.5744 61.9838H397.198C402.485 61.9838 406.762 65.9894 406.762 70.9149L398.06 279.594C398.06 284.549 393.783 288.525 388.496 288.525Z" fill="white"/>
<path d="M403.049 63.853C404.059 65.2773 404.653 66.9685 404.653 68.8081L395.951 277.487C395.951 282.413 391.675 286.418 386.388 286.418H81.2575C79.0598 286.418 77.0105 285.736 75.4067 284.549C77.1293 286.952 80.0398 288.525 83.3662 288.525H388.467C393.754 288.525 398.03 284.519 398.03 279.594L406.732 70.9148C406.762 68.0664 405.307 65.485 403.049 63.853Z" fill="#E7E7E7"/>
<path d="M87.078 264.106L81.2866 77.0568C81.2866 72.1314 85.5633 68.1257 90.8498 68.1257H387.279C392.565 68.1257 396.842 72.1314 396.842 77.0568L388.14 264.106C388.14 269.031 383.863 273.037 378.577 273.037H96.6412C91.3547 273.037 87.078 269.031 87.078 264.106Z" fill="#E7E7E7"/>
<path d="M86.6327 268.936L80.8413 81.8869C80.8413 76.9615 85.118 72.9558 90.4045 72.9558H386.833C392.12 72.9558 396.396 76.9615 396.396 81.8869L387.694 268.936C387.694 273.861 383.418 277.867 378.131 277.867H96.1958C90.9094 277.837 86.6327 273.861 86.6327 268.936Z" fill="url(#paint0_linear)"/>
<path d="M279.144 288.525H213.003V295.468H279.144V288.525Z" fill="#12B5F7"/>
<path d="M273.5 327.602H218.676L216.923 295.498H275.223L273.5 327.602Z" fill="#12B5F7"/>
<path d="M275.223 295.498H216.923L218.676 327.602H225.893C226.605 322.617 228.001 317.277 230.734 313.004C235.634 305.289 259.75 302.233 274.956 301.076L275.223 295.498Z" fill="#0094EF"/>
<path d="M322.95 344.99H173.86C173.86 335.376 181.641 327.602 191.264 327.602H305.547C315.139 327.602 322.95 335.376 322.95 344.99Z" fill="#0094EF"/>
<path d="M117.846 106.58C117.639 106.58 117.431 106.521 117.223 106.402C116.718 106.046 116.599 105.393 116.955 104.889L158.267 45.071C158.624 44.5666 159.277 44.4479 159.782 44.804C160.287 45.1601 160.405 45.8128 160.049 46.3172L118.737 106.105C118.529 106.402 118.173 106.58 117.846 106.58Z" fill="#0094EF"/>
<path d="M46.9251 181.975C46.6578 181.975 46.3905 181.886 46.1826 181.678C45.7372 181.263 45.7075 180.58 46.1232 180.135L114.729 106.877C115.144 106.432 115.827 106.402 116.273 106.817C116.718 107.233 116.748 107.915 116.332 108.36L47.727 181.619C47.5191 181.856 47.2221 181.975 46.9251 181.975Z" fill="#0094EF"/>
<path d="M115.531 108.716C115.323 108.716 115.085 108.657 114.907 108.509L59.7256 69.0159C59.2504 68.6598 59.1316 67.9774 59.488 67.5026C59.8444 67.0279 60.5275 66.9092 61.0026 67.2653L116.184 106.758C116.659 107.114 116.778 107.796 116.422 108.271C116.184 108.568 115.857 108.716 115.531 108.716Z" fill="#0094EF"/>
<path d="M144.962 234.79C144.457 234.79 144.012 234.464 143.893 233.959L114.461 107.885C114.313 107.292 114.699 106.728 115.263 106.58C115.857 106.432 116.421 106.817 116.57 107.381L146.002 233.455C146.15 234.048 145.764 234.612 145.2 234.76C145.111 234.79 145.022 234.79 144.962 234.79Z" fill="#0094EF"/>
<path d="M115.53 119.843C122.288 119.843 127.766 114.37 127.766 107.618C127.766 100.867 122.288 95.3938 115.53 95.3938C108.772 95.3938 103.294 100.867 103.294 107.618C103.294 114.37 108.772 119.843 115.53 119.843Z" fill="#0094EF"/>
<path d="M115.53 114.829C119.844 114.829 123.341 111.335 123.341 107.025C123.341 102.715 119.844 99.2214 115.53 99.2214C111.216 99.2214 107.719 102.715 107.719 107.025C107.719 111.335 111.216 114.829 115.53 114.829Z" fill="white"/>
<path d="M57.9136 95.7201H5.67257C2.55414 95.7201 0 93.198 0 90.0529V46.1688C0 43.0533 2.52444 40.5016 5.67257 40.5016H57.9136C61.0321 40.5016 63.5862 43.0237 63.5862 46.1688V90.0529C63.5862 93.198 61.0321 95.7201 57.9136 95.7201Z" fill="white"/>
<path d="M60.4085 41.0951C60.7946 41.8665 61.0025 42.6973 61.0025 43.6172V87.5012C61.0025 90.6167 58.4781 93.1684 55.33 93.1684H3.08889C2.19791 93.1684 1.33663 92.9607 0.564453 92.575C1.48513 94.4443 3.41559 95.7202 5.64304 95.7202H57.9138C61.0322 95.7202 63.5864 93.1981 63.5864 90.0529V46.1689C63.5864 43.9436 62.2796 42.0446 60.4085 41.0951Z" fill="#0094EF"/>
<path d="M57.9136 204.406H5.67257C2.55414 204.406 0 201.884 0 198.739V154.885C0 151.769 2.52444 149.218 5.67257 149.218H57.9136C61.0321 149.218 63.5862 151.74 63.5862 154.885V198.769C63.5862 201.884 61.0321 204.406 57.9136 204.406Z" fill="white"/>
<path d="M60.4085 149.811C60.7946 150.582 61.0025 151.413 61.0025 152.333V196.217C61.0025 199.333 58.4781 201.884 55.33 201.884H3.08889C2.19791 201.884 1.33663 201.677 0.564453 201.291C1.48513 203.16 3.41559 204.436 5.64304 204.436H57.9138C61.0322 204.436 63.5864 201.914 63.5864 198.769V154.885C63.5864 152.659 62.2796 150.731 60.4085 149.811Z" fill="#0094EF"/>
<path d="M126.341 55.2186H186.749C190.105 55.2186 192.808 52.5185 192.808 49.1657V6.05309C192.808 2.70022 190.105 0.00012207 186.749 0.00012207H126.341C122.985 0.00012207 120.282 2.70022 120.282 6.05309V49.1657C120.312 52.4889 123.015 55.2186 126.341 55.2186Z" fill="white"/>
<path d="M123.906 0.593628C123.49 1.36508 123.222 2.19588 123.222 3.1157V46.9997C123.222 50.1152 126.133 52.667 129.697 52.667H189.303C190.343 52.667 191.293 52.4593 192.184 52.0735C191.115 53.9428 188.917 55.2187 186.393 55.2187H126.757C123.193 55.2187 120.282 52.6966 120.282 49.5515V5.66744C120.312 3.44208 121.767 1.51344 123.906 0.593628Z" fill="#0094EF"/>
<path d="M118.738 214.673H179.146C182.502 214.673 185.205 217.373 185.205 220.726V263.838C185.205 267.191 182.502 269.891 179.146 269.891H118.738C115.382 269.891 112.679 267.191 112.679 263.838V220.726C112.679 217.403 115.382 214.673 118.738 214.673Z" fill="white"/>
<path d="M116.273 269.299C115.857 268.557 115.59 267.697 115.59 266.777V222.922C115.59 219.807 118.5 217.255 122.064 217.255H181.671C182.71 217.255 183.661 217.463 184.552 217.849C183.482 215.979 181.285 214.703 178.76 214.703H119.154C115.59 214.703 112.679 217.226 112.679 220.371V264.255C112.679 266.451 114.134 268.379 116.273 269.299Z" fill="#0094EF"/>
<path d="M21.146 58.9276C22.1793 58.9276 23.017 58.0907 23.017 57.0583C23.017 56.0259 22.1793 55.189 21.146 55.189C20.1126 55.189 19.2749 56.0259 19.2749 57.0583C19.2749 58.0907 20.1126 58.9276 21.146 58.9276Z" fill="#0094EF"/>
<path d="M42.8857 52.9933C43.5418 52.9933 44.0737 52.462 44.0737 51.8065C44.0737 51.151 43.5418 50.6196 42.8857 50.6196C42.2296 50.6196 41.6978 51.151 41.6978 51.8065C41.6978 52.462 42.2296 52.9933 42.8857 52.9933Z" fill="#0094EF"/>
<path d="M30.5606 85.6023C21.532 85.6023 14.1963 78.2734 14.1963 69.2533C14.1963 65.1883 15.6813 61.3014 18.3839 58.3342L18.7997 57.8892L19.0967 58.4232C19.2749 58.7496 19.5422 59.0167 19.8392 59.2244L20.2549 59.4914L19.9283 59.8771C17.6414 62.4586 16.3643 65.7818 16.3643 69.2533C16.3643 77.0569 22.72 83.4066 30.5309 83.4066C37.9557 83.4066 44.0738 77.7097 44.6678 70.3808C41.9354 69.8468 39.9456 67.4434 39.9456 64.6246V54.2396L41.2226 52.3109L41.6087 52.7857C41.8166 53.0527 42.1136 53.2604 42.47 53.3494L43.064 53.4978L42.1433 54.8924V64.6246C42.1433 66.6422 43.8065 68.3038 45.826 68.3038C47.8456 68.3038 49.5088 66.6422 49.5088 64.6246V54.922L48.4693 53.4978L49.0633 53.3198C49.39 53.2011 49.687 52.9934 49.8948 52.7263L50.2512 52.2219L51.7362 54.2099V64.6542C51.7362 67.5027 49.687 69.9061 46.9249 70.4105C46.2715 78.9559 39.2031 85.6023 30.5606 85.6023Z" fill="#0094EF"/>
<path d="M48.5288 52.9933C49.1849 52.9933 49.7168 52.462 49.7168 51.8065C49.7168 51.151 49.1849 50.6196 48.5288 50.6196C47.8727 50.6196 47.3408 51.151 47.3408 51.8065C47.3408 52.462 47.8727 52.9933 48.5288 52.9933Z" fill="#0094EF"/>
<path d="M37.3021 65.9597H32.8769V61.5387H27.9765V65.9597H23.5513V70.8555H27.9765V75.2766H32.8769V70.8555H37.3021V65.9597Z" fill="#EC1C24"/>
<path d="M167.504 28.4254H166.078L163.138 24.3901L160.911 33.4992L159.218 17.6843L154.644 27.9803L152.654 24.3307L150.1 28.9298L146.596 24.6571L145.022 32.431L143.537 19.0492L138.518 28.1287H126.4C126.103 28.1287 125.836 28.366 125.836 28.6924C125.836 28.9891 126.074 29.2562 126.4 29.2562H139.676L142.408 24.301L144.517 43.2611L147.576 28.188L150.397 31.6299L152.654 27.5649L154.852 31.5409L158.268 23.8856L160.347 43.1424L164.029 28.0396L165.098 29.4935H168.306C167.979 29.1672 167.712 28.7814 167.504 28.4254Z" fill="#0094EF"/>
<path d="M178.225 21.0371C178.225 21.0371 180.096 18.426 183.809 18.426C187.135 18.426 189.392 21.0965 189.392 24.212C189.392 27.8022 186.274 32.0749 178.196 35.7838C170.117 32.0749 166.999 27.8022 166.999 24.212C166.999 21.0965 169.286 18.426 172.582 18.426C176.354 18.426 178.225 21.0371 178.225 21.0371Z" fill="#EC1C24"/>
<path opacity="0.66" d="M162.277 251.317L133.499 247.638C131.657 247.4 130.38 245.739 130.618 243.899L132.578 228.707C132.816 226.868 134.479 225.592 136.32 225.829L165.099 229.509C166.94 229.746 168.217 231.408 167.979 233.247L166.019 248.439C165.782 250.249 164.089 251.555 162.277 251.317Z" fill="white"/>
<path d="M144.695 231.645L143.923 229.865C143.685 229.36 143.18 229.034 142.616 229.034H129.341C128.568 229.034 127.915 229.657 127.915 230.458V239.478H127.945V256.45C127.945 257.222 128.568 257.874 129.37 257.874H168.544C169.316 257.874 169.969 257.251 169.969 256.45V233.9C169.969 233.128 169.345 232.476 168.544 232.476H146.002C145.438 232.505 144.933 232.149 144.695 231.645Z" fill="#12B5F7"/>
<path d="M149.684 253.305C154.015 253.305 157.525 249.798 157.525 245.472C157.525 241.146 154.015 237.639 149.684 237.639C145.354 237.639 141.844 241.146 141.844 245.472C141.844 249.798 145.354 253.305 149.684 253.305Z" fill="white"/>
<path d="M155.773 243.335H151.853V239.389H147.516V243.335H143.566V247.668H147.516V251.584H151.853V247.668H155.773V243.335Z" fill="#EC1C24"/>
<path d="M28.6889 172.124C30.8377 172.124 32.5796 170.384 32.5796 168.237C32.5796 166.09 30.8377 164.35 28.6889 164.35C26.5402 164.35 24.7983 166.09 24.7983 168.237C24.7983 170.384 26.5402 172.124 28.6889 172.124Z" fill="#EC1C24"/>
<path d="M34.6091 178.815H40.252V173.386H34.6091V178.815Z" fill="#0094EF"/>
<path d="M35.4412 180.634H39.4209V179.12H35.4412V180.634Z" fill="#0094EF"/>
<path d="M34.0059 168.89C34.0059 167.673 33.6198 166.516 32.9961 165.567V161.828C33.8871 161.828 34.6296 161.086 34.6296 160.196V157.229H40.2724V160.196C40.2724 161.086 41.0149 161.828 41.9059 161.828V171.442C41.9059 172.273 41.2228 172.955 40.3912 172.955H34.5108C33.8871 172.955 33.3228 172.569 33.1149 172.006C33.6792 171.115 34.0059 170.047 34.0059 168.89Z" fill="#0094EF"/>
<path d="M33.243 157.236H41.6182V155.248H33.243V157.236Z" fill="#0094EF"/>
<path d="M22.1555 168.326C22.1258 168.504 22.1258 168.712 22.1258 168.89C22.1258 171.738 24.1453 174.112 26.8183 174.676C25.9867 175.269 25.3333 176.07 24.9769 177.079C24.3235 178.83 24.6205 180.758 25.4224 182.39C26.3728 184.349 28.0062 185.892 29.8773 186.989L29.1645 189.452C19.4231 186.722 15.2652 175.922 22.1555 168.326Z" fill="#0094EF"/>
<path d="M24.6334 192.373H32.771V186.914H24.6334V192.373Z" fill="#0094EF"/>
<path d="M17.8193 195.297H48.0829V194.407C48.0829 193.309 47.192 192.39 46.0634 192.39H19.8389C18.74 192.39 17.8193 193.28 17.8193 194.407V195.297Z" fill="#0094EF"/>
<path d="M29.711 185.242H45.2734V182.512H29.711V185.242Z" fill="#0094EF"/>
<path d="M445.874 143.492L449.411 157.018L460.816 152.601L458.773 140.628L445.874 143.492Z" fill="#F8ACA4"/>
<path d="M394.447 110.416C393.328 108.77 385.668 98.7156 384.338 99.6459C383.044 100.576 387.731 107.339 388.466 108.376C388.466 108.376 385.773 108.162 384.443 111.239C383.569 113.314 389.13 123.19 391.474 127.09C393.503 126.446 396.546 123.941 396.441 121.758C396.441 117.715 395.286 111.668 394.447 110.416Z" fill="#F8ACA4"/>
<path opacity="0.53" d="M455.845 141.268L445.874 143.492L447.155 148.427C449.655 148.001 452.247 146.63 453.802 143.949C454.229 143.279 454.992 142.334 455.845 141.268Z" fill="#F04C4F"/>
<path d="M442.55 346.358L441.178 354.097L435.049 354.554L436.116 340.966L442.55 346.358Z" fill="#FCDCCE"/>
<path d="M442.245 352.908C442.245 352.908 436.604 353 435.353 352.025C434.103 351.05 432.823 352.939 430.81 355.467C428.797 357.996 421.357 357.691 420.442 359.672C419.741 361.195 441.879 360.738 443.007 360.707C443.8 360.707 442.245 352.908 442.245 352.908Z" fill="#031135"/>
<path d="M459.139 345.14L457.766 352.908L451.637 353.335L452.674 339.748L459.139 345.14Z" fill="#FCDCCE"/>
<path d="M458.834 351.69C458.834 351.69 453.192 351.781 451.942 350.806C450.692 349.831 449.411 351.72 447.398 354.249C445.386 356.778 438.342 357.143 437.366 359.093C436.36 361.043 458.62 360.738 459.108 360.098C459.596 359.519 458.834 351.69 458.834 351.69Z" fill="#031135"/>
<path d="M446.179 239.64L446.819 295.147L451.149 349.1L459.26 350.471C459.26 350.471 466 255.116 472.983 244.605C479.966 234.095 472.068 216.699 472.007 216.669L446.179 239.64Z" fill="#0168B1"/>
<path d="M469.171 242.717C472.19 238.177 474.385 232.176 473.836 225.351C473.653 223.128 470.086 220.69 469.659 218.802L446.209 239.64L446.849 295.147L449.258 325.216C453.588 299.321 461.608 262.153 463.225 251.49C463.895 250.516 466.182 247.195 469.171 242.717Z" fill="#0094EF"/>
<path d="M436.878 213.714C436.878 213.714 432.761 264.347 432.426 281.285C432.091 298.589 434.256 350.471 434.256 350.471L443.8 350.502C443.8 350.502 457.98 266.114 460.328 250.333C460.328 250.333 458.986 252.618 465.969 242.077C472.952 231.566 467.829 216.73 467.798 216.699L455.388 221.33L436.878 213.714Z" fill="#0094EF"/>
<path d="M479.875 189.129L471.062 203.904L474.904 212.708C474.904 212.708 498.262 194.338 496.28 189.311C494.603 185.077 471.245 160.034 464.933 153.149C463.805 151.9 462.006 151.474 460.42 152.022L449.595 155.769C449.564 155.739 480.851 185.869 479.875 189.129Z" fill="#CB161D"/>
<path d="M440.081 151.809C440.081 151.809 437.306 223.067 430.201 237.507C430.201 237.507 462.493 232.754 477.313 232.754C477.313 232.754 476.978 172.403 469.812 159.029C462.615 145.625 447.064 148.092 440.081 151.809Z" fill="#F04C4F"/>
<path d="M456.424 178.07C463.346 174.414 465.542 169.326 465.694 162.868C465.786 158.176 450.021 160.613 439.653 161.284C439.47 164.939 439.196 169.448 438.891 174.475C442.855 178.831 451.423 180.72 456.424 178.07Z" fill="#CB161D"/>
<path d="M403.64 154.795C403.64 154.795 425.992 173.927 443.801 173.226C461.609 172.525 463.957 168.23 465.482 163.477C467.006 158.725 456.852 152.235 446.667 150.286C436.482 148.336 418.308 148.519 415.533 145.96C412.758 143.401 398.396 124.055 397.206 120.704L388.577 124.39L403.64 154.795Z" fill="#F04C4F"/>
<path d="M450.509 121.435C450.509 121.435 447.49 122.928 444.898 126.736C442.337 130.544 439.562 132.585 439.562 132.585L440.781 134.535C440.781 134.535 438.037 136.515 438.281 139.531C438.86 146.173 449.167 147.361 454.29 143.492C455.693 142.456 459.992 141.116 461.426 138.77C465.207 132.433 464.109 122.684 450.509 121.435Z" fill="#F8ACA4"/>
<path d="M455.571 135.662C455.571 135.662 452.155 129.326 453.772 124.878C453.772 124.878 450.021 124.817 447.002 123.111C441.574 120.034 448.161 108.64 456.333 116.774C456.333 116.774 455.632 111.26 461.395 112.235C467.158 113.21 469.262 115.525 468.226 121.009C467.189 126.493 469.567 124.055 471.336 127.254C473.105 130.453 463.835 141.938 459.504 142.365C455.174 142.791 455.174 142.791 455.174 142.791C455.174 142.791 461.365 139.318 459.626 136.698C457.888 134.078 455.571 135.662 455.571 135.662Z" fill="#470000"/>
<path d="M231.145 113.894C231.145 113.894 235.273 155.612 233.492 169.824L223.305 277.621H311.185C311.185 277.621 306.255 185.758 306.255 178.815C306.255 171.872 304.8 113.894 304.8 113.894L291.019 106.951L256.36 106.506L231.145 113.894Z" fill="url(#paint1_linear)"/>
<path d="M304.651 113.805C304.651 113.805 301.651 146.918 306.166 172.139C307.294 178.488 324.817 181.277 334.38 188.488C350.329 200.475 361.436 216.675 364.287 223.114C370.762 220.206 370.702 191.099 367.168 179.557C363.337 171.872 304.651 113.805 304.651 113.805Z" fill="white"/>
<path d="M253.578 107.173L234.262 112.229C234.262 112.229 242.002 148.241 246.599 152.527C251.23 156.843 245.806 160.05 249.676 163.657C253.545 167.265 275.045 194.428 275.045 194.428L253.578 107.173Z" fill="url(#paint2_linear)"/>
<path d="M293.764 108.121L275.045 194.428C275.045 194.428 294.959 159.837 296.689 158.137C298.388 156.468 296.689 149.389 296.689 146.05C296.689 142.712 307.292 113.871 307.292 113.871C307.292 113.871 297.57 108.121 293.764 108.121Z" fill="url(#paint3_linear)"/>
<path d="M256.39 106.506L237.828 108.375C237.828 108.375 244.54 142.497 248.668 146.621C252.826 150.775 247.955 153.861 251.43 157.333C254.905 160.804 274.209 191.099 274.209 191.099L256.39 106.506Z" fill="white"/>
<path d="M291.049 106.951L274.239 191.129C274.239 191.129 293.038 153.772 294.672 152.17C296.276 150.568 294.672 143.773 294.672 140.568C294.672 137.394 304.859 111.016 304.859 111.016C304.859 111.016 294.642 106.951 291.049 106.951Z" fill="white"/>
<path d="M271.774 277.621L274.239 191.128L273.704 277.621H271.774Z" fill="black" fill-opacity="0.2"/>
<path d="M164.055 118.226L159.006 100.126L136.731 105.823C136.731 105.823 139.909 115.704 142.107 117.039C143.74 118.048 148.641 121.045 151.136 122.558L171.034 161.991L185.349 144.307L164.055 118.226Z" fill="#F8ACA4"/>
<path d="M269.279 16.7791C269.279 16.7791 286.237 14.7021 293.484 18.1736C300.731 21.6155 314.957 35.5907 311.185 62.6807C311.185 62.6807 314.244 63.6599 315.105 67.7842C315.966 71.9382 316.056 79.3264 308.868 86.1805C301.681 93.0346 289.593 92.2632 283.357 92.2632C277.12 92.2632 259.567 87.0113 255.083 77.3384C250.598 67.6359 269.279 16.7791 269.279 16.7791Z" fill="#AA1116"/>
<path d="M277.506 20.7254C272.962 20.31 269.16 22.387 266.131 25.7992C262.27 37.104 256.122 56.4795 254.697 68.4371C255.32 73.2438 256.924 78.0209 259.211 81.7892C259.597 82.442 260.043 83.0651 260.458 83.6585C266.458 88.3763 275.308 91.2247 280.743 92.0258C297.642 89.7411 302.423 74.1637 302.008 56.9542C301.889 52.3255 305.215 37.9052 298.028 28.5587C293.187 22.298 284.871 19.9836 277.506 20.7254Z" fill="#890B0E"/>
<path d="M260.607 80.0089C260.607 80.0089 261.469 91.7588 260.607 97.0996C259.746 102.44 256.39 106.505 256.39 106.505L274.239 191.128L291.049 106.951C291.049 106.951 286.862 104.399 285.674 97.0996C284.486 89.8004 284.515 71.0184 284.515 71.0184L260.607 80.0089Z" fill="#F8ACA4"/>
<path d="M274.239 191.128L287.307 125.584C277.328 126.682 267.408 125.406 260.043 123.893L274.239 191.128Z" fill="#12B5F7"/>
<path d="M287.307 125.584C287.218 125.584 287.129 125.614 287.04 125.614C283.773 138.996 276.259 168.667 273.705 171.219C271.24 173.682 263.755 140.984 260.073 123.893C260.073 123.893 260.073 123.893 260.043 123.893L274.21 191.099L287.307 125.584Z" fill="#0094EF"/>
<path opacity="0.53" d="M264.35 78.5846C266.904 88.5542 273.111 97.9304 284.931 94.8149C285.08 94.7852 285.199 94.7259 285.347 94.6962C284.486 86.3585 284.486 71.0184 284.486 71.0184L264.35 78.5846Z" fill="#F47C79"/>
<path d="M280.743 23.0695C280.743 23.0695 291.049 21.4672 296.691 29.7456C302.334 38.0239 299.751 51.9101 299.751 55.3817C299.751 58.8532 301.414 84.0739 284.96 87.9906C268.507 91.9072 262.923 73.9263 262.923 63.0666C262.923 52.2068 266.962 24.4047 280.743 23.0695Z" fill="#F8ACA4"/>
<path opacity="0.53" d="M269.368 32.7424C268.804 33.9886 268.24 35.3238 267.765 36.7183C273.467 34.9974 279.258 33.6622 285.05 32.772C287.366 40.813 292.296 46.3319 300.345 46.3319C300.434 43.1274 300.256 39.5075 299.424 36.1249C289.98 32.2676 279.258 26.7488 269.368 32.7424Z" fill="#F04C4F"/>
<path d="M160.758 101.224C160.55 100.987 144.096 85.3201 140.83 86.2993C135.395 87.7235 147.452 96.6843 148.759 98.3756C149.413 99.2064 150.007 100.275 150.511 101.283C150.096 101.402 149.68 101.521 149.324 101.61C146.235 102.352 137.949 103.894 136.761 105.823C136.761 105.823 136.523 116.653 139.374 116.713C142.225 116.772 145.106 115.733 148.165 116.03C149.68 116.178 151.254 115.437 152.442 114.636C152.62 114.517 152.798 114.368 152.977 114.25C152.59 114.903 152.472 115.674 152.887 116.475C154.343 119.442 164.44 114.339 164.886 112.44C165.331 110.571 163.074 104.102 160.758 101.224ZM158.441 111.045C157.521 111.283 155.739 111.906 154.372 112.885C153.986 111.876 152.056 106.654 152.383 104.577C153.778 103.093 156.867 103.034 158.352 103.687C158.56 103.865 158.708 104.102 158.768 104.429C159.243 106.357 160.253 110.6 158.441 111.045Z" fill="#F8ACA4"/>
<path d="M159.511 141.992C159.511 141.992 183.003 202.255 192.002 206.914C201.001 211.572 233.937 161.427 233.937 161.427C233.937 161.427 235.214 113.923 231.145 113.923C227.077 113.923 210.386 133.774 205.574 145.701C200.674 157.837 200.852 163.979 194.289 152.17C187.577 140.123 175.786 123.923 175.786 123.923C169.074 130.658 159.511 141.992 159.511 141.992Z" fill="white"/>
<path d="M293.514 18.2627C293.514 18.2627 287.723 17.5506 284.218 20.2803C280.743 23.0398 273.051 24.3453 268.567 45.6197C264.082 66.9238 267.705 69.3865 267.705 69.3865C267.705 69.3865 272.487 79.2374 266.309 86.774C260.132 94.3105 248.074 91.4621 241.303 87.4861C231.472 81.7298 233.224 61.7313 237.353 48.6462C237.917 46.8066 238.214 45.7384 238.897 44.1955C240.204 41.258 240.62 37.8755 242.52 34.7896C248.609 24.7904 259.686 15.6219 279.318 16.1263C279.288 16.1857 288.138 15.6813 293.514 18.2627Z" fill="#AA1116"/>
<path d="M239.342 42.6526C238.125 46.3319 238.303 45.7978 237.382 48.7056C237.174 49.3287 236.996 49.9518 236.818 50.6045C240.679 48.3792 241.421 47.7561 245.846 45.5307C253.925 41.4064 262.597 38.0832 271.418 35.7095C271.596 35.2347 271.774 34.7897 271.952 34.3446C260.577 35.3831 249.351 37.4304 239.342 42.6526Z" fill="#890B0E"/>
<path d="M241.778 35.205C263.28 23.9596 277.743 22.9507 302.424 24.553V30.4873C281.723 30.5763 261.26 36.1842 244.064 44.9373C239.431 47.311 236.966 48.9132 236.937 48.9429L241.778 35.205Z" fill="#12B5F7"/>
<path d="M397.788 155.552L336.103 148.075L297.464 221.66H347.478L397.788 155.552Z" fill="#031135"/>
<path opacity="0.44" d="M347.478 221.66L397.788 155.552L336.103 148.105L335.004 150.212C344.656 152.734 363.307 158.638 366.069 167.213C369.039 176.352 347.478 208.397 338.152 221.69H347.478V221.66Z" fill="#031135"/>
<path d="M333.816 144.752L294.494 220.325L297.464 221.66L336.103 148.075L397.788 155.552L394.046 152.585L333.816 144.752Z" fill="#0094EF"/>
<path d="M322.708 196.262C323.837 195.371 333.222 201.187 338.627 204.688C338.627 204.629 338.657 204.54 338.657 204.481C333.578 200.712 324.698 196.232 326.718 194.926C327.757 194.274 350.061 203.234 350.091 203.234C352.437 204.303 352.556 204.392 354.962 205.46C354.398 204.065 348.547 194.57 352.497 195.045L365.535 212.076C367.732 215.696 367.673 217.892 367.109 219.791C366.426 222.105 363.159 228.336 357.843 229.612C352.705 230.829 338.805 222.966 336.637 220.948C334.291 218.931 318.343 205.015 320.897 201.128C320.897 201.128 334.202 214.094 335.598 212.492C335.687 212.106 322.441 203.353 321.431 199.911C320.689 197.448 332.242 204.926 337.32 208.694C332.747 204.926 321.936 196.885 322.708 196.262Z" fill="#F8ACA4"/>
<path d="M84.1217 361H41.0336C31.6217 361 23.9922 353.378 23.9922 343.975V234.606C23.9922 225.203 31.6217 217.581 41.0336 217.581H84.1217C93.5336 217.581 101.163 225.203 101.163 234.606V343.975C101.163 353.378 93.5336 361 84.1217 361Z" fill="#0168B1"/>
<path d="M84.1214 217.581H81.9326C91.3445 217.581 98.974 225.203 98.974 234.606V343.975C98.974 353.378 91.3445 361 81.9326 361H84.1214C93.5333 361 101.163 353.378 101.163 343.975V234.606C101.163 225.203 93.5333 217.581 84.1214 217.581Z" fill="#031135"/>
<path d="M41.0333 358.813C32.8409 358.813 26.1807 352.159 26.1807 343.975V234.606C26.1807 226.421 32.8409 219.767 41.0333 219.767H84.1214C92.3138 219.767 98.974 226.421 98.974 234.606V343.975C98.974 352.159 92.3138 358.813 84.1214 358.813H41.0333Z" fill="#023D73"/>
<path d="M70.4574 227.39H55.9487C55.511 227.39 55.1357 227.046 55.1357 226.578C55.1357 226.14 55.4797 225.765 55.9487 225.765H70.4574C70.8951 225.765 71.2704 226.109 71.2704 226.578C71.2391 227.046 70.8951 227.39 70.4574 227.39Z" fill="#031135"/>
<path d="M71.9269 232.732H54.479C53.9787 232.732 53.6035 232.326 53.6035 231.857C53.6035 231.357 54.01 230.982 54.479 230.982H71.9269C72.4272 230.982 72.8025 231.388 72.8025 231.857C72.8025 232.326 72.396 232.732 71.9269 232.732Z" fill="#031135"/>
<path d="M48.4128 233.075C49.0863 233.075 49.6323 232.53 49.6323 231.857C49.6323 231.184 49.0863 230.639 48.4128 230.639C47.7393 230.639 47.1934 231.184 47.1934 231.857C47.1934 232.53 47.7393 233.075 48.4128 233.075Z" fill="#031135"/>
<path d="M62.5776 356.033C66.2042 356.033 69.1441 353.096 69.1441 349.473C69.1441 345.85 66.2042 342.913 62.5776 342.913C58.9511 342.913 56.0112 345.85 56.0112 349.473C56.0112 353.096 58.9511 356.033 62.5776 356.033Z" fill="#031135"/>
<path d="M61.4834 356.033C65.1099 356.033 68.0498 353.096 68.0498 349.473C68.0498 345.85 65.1099 342.913 61.4834 342.913C57.8569 342.913 54.917 345.85 54.917 349.473C54.917 353.096 57.8569 356.033 61.4834 356.033Z" fill="#0168B1"/>
<path d="M91.1569 339.133H33.7477C31.809 339.133 30.2456 337.571 30.2456 335.634V247.133C30.2456 245.196 31.809 243.634 33.7477 243.634H91.1569C93.0955 243.634 94.659 245.196 94.659 247.133V335.634C94.659 337.571 93.0955 339.133 91.1569 339.133Z" fill="#E7E7E7"/>
<path d="M31.6846 335.509V247.258C31.6846 246.196 32.5288 245.352 33.592 245.352H91.2513C92.3144 245.352 93.1586 246.196 93.1586 247.258V335.478C93.1586 336.54 92.3144 337.383 91.2513 337.383H33.6232C32.5601 337.414 31.6846 336.54 31.6846 335.509Z" fill="white"/>
<path d="M91.4076 245.352H33.4669C32.4976 245.352 31.6846 246.29 31.6846 247.414V260.753H93.19V247.414C93.19 246.29 92.4082 245.352 91.4076 245.352Z" fill="white"/>
<path d="M81.0257 263.596H46.0674V265.939H81.0257V263.596Z" fill="#0094EF"/>
<path d="M37.813 264.752L41.1275 267.001V262.534L37.813 264.752Z" fill="#0094EF"/>
<path d="M86.8418 264.752L83.5273 267.001V262.534L86.8418 264.752Z" fill="#0094EF"/>
<path d="M51.6338 256.474H36.4372C34.8738 256.474 33.5918 255.193 33.5918 253.631V252.131C33.5918 250.569 34.8738 249.289 36.4372 249.289H51.6338C53.1972 249.289 54.4792 250.569 54.4792 252.131V253.631C54.4792 255.193 53.1972 256.474 51.6338 256.474Z" fill="#0094EF"/>
<path d="M88.6867 256.474H84.997C84.184 256.474 83.5273 255.818 83.5273 255.005V250.757C83.5273 249.945 84.184 249.289 84.997 249.289H88.6867C89.4997 249.289 90.1563 249.945 90.1563 250.757V255.005C90.1563 255.818 89.4997 256.474 88.6867 256.474Z" fill="#0094EF"/>
<path d="M87.3737 250.476H86.3105V255.13H87.3737V250.476Z" fill="white"/>
<path d="M84.8623 252.175V253.425H88.8334V252.175H84.8623Z" fill="white"/>
<path d="M41.5963 275.405H34.7798V334.166H41.5963V275.405Z" fill="#CCFEFF"/>
<path d="M49.7575 275.405H42.9409V334.166H49.7575V275.405Z" fill="#CCFEFF"/>
<path d="M57.9816 275.405H51.165V334.166H57.9816V275.405Z" fill="#CCFEFF"/>
<path d="M66.2047 275.405H59.3882V334.166H66.2047V275.405Z" fill="#CCFEFF"/>
<path d="M74.4288 275.405H67.6123V334.166H74.4288V275.405Z" fill="#CCFEFF"/>
<path d="M82.6515 275.405H75.835V334.166H82.6515V275.405Z" fill="#CCFEFF"/>
<path d="M90.8761 275.405H84.0596V334.166H90.8761V275.405Z" fill="#CCFEFF"/>
<path d="M41.5963 268.688H34.7798V273.155H41.5963V268.688Z" fill="#0094EF"/>
<path d="M49.7575 268.688H42.9409V273.155H49.7575V268.688Z" fill="#0094EF"/>
<path d="M57.9816 268.688H51.165V273.155H57.9816V268.688Z" fill="#0094EF"/>
<path d="M66.2047 268.688H59.3882V273.155H66.2047V268.688Z" fill="#0094EF"/>
<path d="M74.4288 268.688H67.6123V273.155H74.4288V268.688Z" fill="#0094EF"/>
<path d="M82.6515 268.688H75.835V273.155H82.6515V268.688Z" fill="#EC1C24"/>
<path d="M90.8761 268.688H84.0596V273.155H90.8761V268.688Z" fill="#EC1C24"/>
<path d="M91.5325 282.183H33.5918V283.652H91.5325V282.183Z" fill="white"/>
<path d="M91.5325 290.962H33.5918V292.43H91.5325V290.962Z" fill="white"/>
<path d="M91.5325 299.74H33.5918V301.208H91.5325V299.74Z" fill="white"/>
<path d="M91.5325 308.487H33.5918V309.955H91.5325V308.487Z" fill="white"/>
<path d="M91.5325 317.265H33.5918V318.733H91.5325V317.265Z" fill="white"/>
<path d="M91.4075 326.043H33.4668V327.512H91.4075V326.043Z" fill="white"/>
<path d="M61.6708 292.961L56.105 290.556C56.2926 290.806 63.2968 299.334 63.1091 299.115C64.5162 295.96 67.6431 288.962 69.0814 285.745L61.6708 292.961Z" fill="#EC1C24"/>
<defs>
<linearGradient id="paint0_linear" x1="238.619" y1="72.9558" x2="238.619" y2="277.867" gradientUnits="userSpaceOnUse">
<stop stop-color="#94F1FF"/>
<stop offset="1" stop-color="#12B5F7"/>
</linearGradient>
<linearGradient id="paint1_linear" x1="267.245" y1="106.506" x2="267.245" y2="277.621" gradientUnits="userSpaceOnUse">
<stop offset="0.5625" stop-color="white"/>
<stop offset="1" stop-color="white" stop-opacity="0.3"/>
</linearGradient>
<linearGradient id="paint2_linear" x1="254.653" y1="107.173" x2="254.653" y2="194.428" gradientUnits="userSpaceOnUse">
<stop stop-color="#D5D5D5" stop-opacity="0"/>
<stop offset="1" stop-color="#EDEDED"/>
</linearGradient>
<linearGradient id="paint3_linear" x1="291.168" y1="108.121" x2="291.168" y2="194.428" gradientUnits="userSpaceOnUse">
<stop stop-color="#D5D5D5" stop-opacity="0"/>
<stop offset="1" stop-color="#EDEDED"/>
</linearGradient>
</defs>
</svg>
